<svg aria-hidden="true" style="position:absolute;width:0;height:0;overflow:hidden" xmlns="http://www.w3.org/2000/svg"><defs><symbol id="icon-arrow" viewBox="0 0 32 32"><path fill="#b6b6b6" style="fill:var(--color1, #b6b6b6)" d="M0 20h16l-6 6 6 6 16-16L16 0l-6 6 6 6H0z"/></symbol><symbol id="icon-cross" viewBox="0 0 32 32"><path fill="#fff" style="fill:var(--color2, #fff)" d="M19.615 16 30.641 5A2.575 2.575 0 0 0 27 1.358L16 12.384 5 1.358A2.575 2.575 0 0 0 1.358 5l11.026 11L1.358 27a2.565 2.565 0 0 0 0 3.64 2.565 2.565 0 0 0 3.64 0l11-11.026 11 11.026a2.565 2.565 0 0 0 3.64 0 2.565 2.565 0 0 0 0-3.64L19.612 16z"/></symbol><symbol id="icon-etsy" viewBox="0 0 28 32"><path d="M9.419 3.26c0-.433.044-.693.787-.693h9.953c1.733 0 2.693 1.48 3.387 4.257l.56 2.221h1.693c.307-6.304.573-9.045.573-9.045s-4.261.48-6.787.48H6.853L.034.261v1.827l2.3.435c1.613.32 2 .661 2.133 2.141 0 0 .147 4.36.147 11.52 0 7.18-.12 11.48-.12 11.48 0 1.297-.52 1.777-2.12 2.097l-2.296.44V32l6.84-.22h11.4c2.58 0 8.52.22 8.52.22.14-1.56 1-8.64 1.14-9.419h-1.6l-1.712 3.88c-1.34 3.04-3.301 3.26-5.48 3.26h-6.541c-2.173 0-3.22-.853-3.22-2.733v-9.921s4.827 0 6.387.128c1.216.085 1.951.433 2.347 2.131l.52 2.26h1.88l-.12-5.704.256-5.74H18.84l-.6 2.52c-.377 1.659-.64 1.96-2.339 2.133-2.221.227-6.42.187-6.42.187V3.267h-.067l.004-.007z"/></symbol><symbol id="icon-fb" viewBox="0 0 19 32"><path d="M12.021 31.595V17.389h4.793l.712-5.562h-5.505V8.284c0-1.605.447-2.704 2.751-2.704h2.919V.621a38.657 38.657 0 0 0-4.276-.22C9.179.401 6.27 2.987 6.27 7.735v4.082H1.509v5.562h4.772v14.217h5.741z"/></symbol><symbol id="icon-heart" viewBox="0 0 36 32"><path fill="#fff" style="fill:var(--color2, #fff)" d="M19.143 5.539C13.266-3.539 1.371 1.406 1.371 11.295c0 7.426 16.307 19.042 17.772 20.552 1.475-1.51 16.971-13.126 16.971-20.552 0-9.814-11.083-14.834-16.971-5.756z"/></symbol><symbol id="icon-logo" viewBox="0 0 133 32"><path fill="#fff" style="fill:var(--color2, #fff)" d="M27.415 27.372C24.32 30.457 20.532 32 16.051 32s-8.284-1.543-11.408-4.628C1.548 24.257 0 20.467 0 16S1.548 7.758 4.643 4.672C7.768 1.557 11.571 0 16.051 0s8.269 1.557 11.364 4.672C30.54 7.757 32.102 11.533 32.102 16s-1.562 8.257-4.687 11.372zm-19.19-3.438c2.122 2.086 4.731 3.129 7.827 3.129s5.689-1.043 7.782-3.129c2.122-2.116 3.184-4.76 3.184-7.934s-1.061-5.803-3.184-7.89c-2.093-2.116-4.687-3.174-7.782-3.174S10.348 5.994 8.225 8.11C6.132 10.196 5.086 12.826 5.086 16s1.046 5.818 3.139 7.934zM49.357 32c-4.805 0-8.121-1.881-9.949-5.642l4.378-2.556c1.002 2.174 2.874 3.262 5.616 3.262 1.769 0 3.125-.426 4.068-1.278.973-.882 1.459-2.116 1.459-3.702V.574h5.085v21.51c0 3.174-1.002 5.627-3.007 7.361-2.005 1.704-4.554 2.556-7.65 2.556zM79.178 32c-4.805 0-8.121-1.881-9.949-5.642l4.378-2.556c1.002 2.174 2.874 3.262 5.615 3.262 1.769 0 3.125-.426 4.068-1.278.973-.882 1.459-2.116 1.459-3.702V.574h5.085v21.51c0 3.174-1.002 5.627-3.007 7.361-2.004 1.704-4.554 2.556-7.65 2.556zM128.236 27.372C125.141 30.457 121.353 32 116.872 32s-8.284-1.543-11.409-4.628c-3.095-3.115-4.642-6.905-4.642-11.372s1.548-8.242 4.642-11.328C108.588 1.557 112.391 0 116.872 0s8.269 1.557 11.364 4.672c3.125 3.085 4.687 6.861 4.687 11.328s-1.562 8.257-4.687 11.372zm-19.19-3.438c2.122 2.086 4.731 3.129 7.826 3.129s5.689-1.043 7.782-3.129c2.122-2.116 3.184-4.76 3.184-7.934s-1.062-5.803-3.184-7.89c-2.093-2.116-4.687-3.174-7.782-3.174s-5.704 1.058-7.826 3.174c-2.093 2.086-3.14 4.716-3.14 7.89s1.047 5.818 3.14 7.934z"/><path fill="#fff" style="fill:var(--color2, #fff)" d="m22.234 14.728-.004-.032a.453.453 0 0 0-.036-.115l-1.81-3.243s-.231-.318-.286-.318h-7.713l-2.32 3.451-.027.032-.004.015a.548.548 0 0 0-.048.111l-.009.031a.553.553 0 0 0 .004.302l.011.035a.582.582 0 0 0 .054.112l5.619 7.926a.51.51 0 0 0 .107.111l.033.023c.032.022.065.04.114.06l.032.012c.055.016.103.023.149.023s.093-.007.155-.025l.038-.015a.582.582 0 0 0 .111-.06l.025-.017a.468.468 0 0 0 .097-.1l5.615-7.916a.584.584 0 0 0 .094-.251l.004-.041.002-.032-.007-.076zm-3.011-.211.799-1.61.799 1.61h-1.598zm-.479.955h1.896l-3.161 4.457 1.264-4.457zm-.469-1.437-1.154-1.743h2.02l-.865 1.743zm-3.698 1.437h3.045l-1.523 5.367-1.522-5.367zm.302-.955 1.22-1.843 1.22 1.843h-2.44zm-.859-.627-.529-1.599h1.587L14.02 13.89zm.7 6.039-3.161-4.457h1.896l1.264 4.457zm-2.144-7.01.529 1.599h-1.588l1.058-1.599zM122.953 14.728l-.004-.032a.453.453 0 0 0-.036-.115l-1.81-3.243s-.231-.318-.286-.318h-7.713l-2.319 3.451-.028.032-.004.015a.548.548 0 0 0-.048.111l-.009.031a.553.553 0 0 0 .004.302l.011.035a.484.484 0 0 0 .054.112l5.619 7.926a.51.51 0 0 0 .107.111l.033.023c.032.022.065.04.114.06l.032.012c.055.016.102.023.149.023s.093-.007.155-.025l.038-.015a.613.613 0 0 0 .111-.06l.025-.017a.468.468 0 0 0 .097-.1l5.615-7.916a.599.599 0 0 0 .095-.251l.004-.041.002-.032-.007-.076zm-3.011-.211.799-1.61.799 1.61h-1.598zm-.479.955h1.897l-3.161 4.457 1.264-4.457zm-.469-1.437-1.154-1.743h2.02l-.865 1.743zm-3.697 1.437h3.045l-1.523 5.367-1.522-5.367zm.301-.955 1.22-1.843 1.22 1.843h-2.44zm-.859-.627-.529-1.599h1.588l-1.058 1.599zm.7 6.039-3.161-4.457h1.897l1.265 4.457zm-2.144-7.01.529 1.599h-1.588l1.058-1.599z"/></symbol><symbol id="icon-mail" viewBox="0 0 48 32"><path d="m1.531 3.429 20 10.744c.672.36 1.541.531 2.416.531s1.744-.171 2.416-.531l20-10.744C47.667 2.728 48.899 0 46.507 0H1.39c-2.392 0-1.16 2.728.141 3.429zm45.437 5.875L26.363 20.043c-.907.475-1.541.531-2.416.531s-1.509-.056-2.416-.531C20.624 19.568 2.51 10.072 1.03 9.302c-1.04-.544-1.029.093-1.029.584v19.448c0 1.12 1.509 2.667 2.667 2.667h42.667c1.157 0 2.667-1.547 2.667-2.667V9.889c0-.491.011-1.128-1.032-.584z"/></symbol><symbol id="icon-man" viewBox="0 0 32 32"><path fill="#fff" style="fill:var(--color2, #fff)" d="M16 0a8 8 0 1 1 0 16 8 8 0 0 1 0-16zm0 20c8.84 0 16 3.58 16 8v4H0v-4c0-4.42 7.16-8 16-8z"/></symbol><symbol id="icon-menu" viewBox="0 0 36 32"><path fill="#fff" style="fill:var(--color2, #fff)" d="M.356 2.667A2.22 2.22 0 0 1 2.578.445h31.111a2.22 2.22 0 0 1 2.222 2.222 2.22 2.22 0 0 1-2.222 2.222H2.578A2.22 2.22 0 0 1 .356 2.667zM.356 29.333a2.22 2.22 0 0 1 2.222-2.222h31.111a2.22 2.22 0 0 1 2.222 2.222 2.22 2.22 0 0 1-2.222 2.222H2.578a2.22 2.22 0 0 1-2.222-2.222zM2.578 13.778A2.22 2.22 0 0 0 .356 16a2.22 2.22 0 0 0 2.222 2.222h17.778A2.22 2.22 0 0 0 22.578 16a2.22 2.22 0 0 0-2.222-2.222H2.578z"/></symbol><symbol id="icon-phone" viewBox="0 0 32 32"><path d="M27.61 19.605c-.154-1.067-.978-1.899-2.038-2.147-4.123-.966-5.157-3.341-5.331-5.974-.731-.136-2.032-.283-4.24-.283s-3.509.147-4.24.283c-.174 2.634-1.208 5.008-5.331 5.974-1.061.25-1.885 1.08-2.038 2.147l-.795 5.507c-.28 1.939 1.144 3.688 3.125 3.688h18.56c1.979 0 3.405-1.749 3.125-3.688l-.795-5.507zM16 24.787c-2.232 0-4.042-1.792-4.042-4s1.81-4 4.042-4c2.232 0 4.042 1.792 4.042 4s-1.811 4-4.042 4zM31.92 9.6C31.882 7.2 25.773 3.202 16 3.2 6.226 3.202.117 7.2.08 9.6s.034 5.523 4.056 5.003c4.706-.61 4.416-2.253 4.416-4.602 0-1.638 3.827-2.034 7.448-2.034s7.446.395 7.448 2.034c0 2.349-.29 3.992 4.416 4.602 4.021.52 4.093-2.603 4.056-5.003z"/></symbol><symbol id="icon-telegram" viewBox="0 0 37 32"><path d="M33.182 1.275 1.662 13.43c-2.151.864-2.139 2.064-.395 2.599l8.092 2.524L28.083 6.74c.885-.539 1.694-.249 1.029.341l-15.17 13.692-.558 8.341c.818 0 1.179-.375 1.637-.818l3.931-3.822 8.176 6.039c1.508.83 2.59.404 2.965-1.396L35.46 3.823c.549-2.203-.841-3.2-2.279-2.549z"/></symbol><symbol id="icon-vk" viewBox="0 0 55 32"><path d="M48.828 22.303s4.435 4.38 5.532 6.407a.312.312 0 0 1 .049.096c.447.749.557 1.336.337 1.769-.37.716-1.624 1.075-2.049 1.105h-7.839c-.546 0-1.681-.143-3.064-1.097-1.056-.738-2.106-1.953-3.124-3.141-1.52-1.764-2.833-3.294-4.164-3.294a1.51 1.51 0 0 0-.494.082c-1.007.318-2.285 1.753-2.285 5.573 0 1.196-.944 1.876-1.605 1.876h-3.59c-1.223 0-7.592-.428-13.24-6.383C6.372 18.005.156 3.38.096 3.252-.291 2.306.521 1.79 1.399 1.79h7.916c1.062 0 1.407.642 1.648 1.218.28.661 1.317 3.305 3.017 6.276 2.754 4.833 4.446 6.8 5.798 6.8.254.001.504-.066.724-.192 1.766-.971 1.437-7.28 1.355-8.58 0-.252-.003-2.817-.908-4.057-.647-.889-1.75-1.234-2.416-1.36a2.863 2.863 0 0 1 1.042-.886c1.21-.603 3.396-.691 5.565-.691h1.204c2.353.033 2.962.184 3.818.4 1.723.411 1.755 1.528 1.605 5.329a88.883 88.883 0 0 0-.09 3.749c0 .307-.014.65-.014.998-.052 1.95-.121 4.147 1.256 5.05.179.111.385.17.595.17.477 0 1.906 0 5.782-6.651 1.701-2.938 3.017-6.402 3.108-6.662.077-.145.307-.554.587-.719.199-.106.422-.159.647-.154h9.312c1.015 0 1.703.154 1.838.538.225.623-.044 2.523-4.295 8.272-.716.957-1.344 1.786-1.895 2.51-3.854 5.058-3.854 5.313.228 9.153z"/><path opacity=".2" d="M48.828 22.303s4.435 4.38 5.532 6.407a.312.312 0 0 1 .049.096c.447.749.557 1.336.337 1.769-.37.716-1.624 1.075-2.049 1.105h-7.839c-.546 0-1.681-.143-3.064-1.097-1.056-.738-2.106-1.953-3.124-3.141-1.52-1.764-2.833-3.294-4.164-3.294a1.51 1.51 0 0 0-.494.082c-1.007.318-2.285 1.753-2.285 5.573 0 1.196-.944 1.876-1.605 1.876h-3.59c-1.223 0-7.592-.428-13.24-6.383C6.372 18.005.156 3.38.096 3.252-.291 2.306.521 1.79 1.399 1.79h7.916c1.062 0 1.407.642 1.648 1.218.28.661 1.317 3.305 3.017 6.276 2.754 4.833 4.446 6.8 5.798 6.8.254.001.504-.066.724-.192 1.766-.971 1.437-7.28 1.355-8.58 0-.252-.003-2.817-.908-4.057-.647-.889-1.75-1.234-2.416-1.36a2.863 2.863 0 0 1 1.042-.886c1.21-.603 3.396-.691 5.565-.691h1.204c2.353.033 2.962.184 3.818.4 1.723.411 1.755 1.528 1.605 5.329a88.883 88.883 0 0 0-.09 3.749c0 .307-.014.65-.014.998-.052 1.95-.121 4.147 1.256 5.05.179.111.385.17.595.17.477 0 1.906 0 5.782-6.651 1.701-2.938 3.017-6.402 3.108-6.662.077-.145.307-.554.587-.719.199-.106.422-.159.647-.154h9.312c1.015 0 1.703.154 1.838.538.225.623-.044 2.523-4.295 8.272-.716.957-1.344 1.786-1.895 2.51-3.854 5.058-3.854 5.313.228 9.153z"/></symbol><symbol id="icon-youtube" viewBox="0 0 48 32"><path d="M45.791 5.048a5.687 5.687 0 0 0-4.013-4.013C38.235.076 24 .076 24 .076s-14.235 0-17.777.959A5.687 5.687 0 0 0 2.21 5.048a58.816 58.816 0 0 0-.959 10.953c-.024 3.673.297 7.34.959 10.952a5.687 5.687 0 0 0 4.013 4.013c3.543.959 17.777.959 17.777.959s14.235 0 17.778-.959a5.687 5.687 0 0 0 4.013-4.013c.662-3.613.983-7.28.959-10.952a58.646 58.646 0 0 0-.959-10.953zM19.45 22.825V9.175L31.264 16 19.45 22.825z"/></symbol><symbol id="icon-zoom" viewBox="0 0 32 32"><path fill="#fff" style="fill:var(--color2, #fff)" d="m32 28.632-8.68-8.68A11.787 11.787 0 0 0 12.872 1.698 11.795 11.795 0 0 0 1.697 12.873a11.79 11.79 0 0 0 18.254 10.448l8.68 8.68 3.368-3.368zM5.053 13.474c0-4.643 3.778-8.421 8.421-8.421s8.421 3.778 8.421 8.421c0 4.643-3.778 8.421-8.421 8.421s-8.421-3.778-8.421-8.421z"/></symbol></defs></svg>