<svg aria-hidden="true" style="position: absolute; width: 0; height: 0; overflow: hidden;" version="1.1" xmlns="http://www.w3.org/2000/svg" xmlns:xlink="http://www.w3.org/1999/xlink">
<defs>
<symbol id="icon-arrow" viewBox="0 0 32 32">
<path fill="#b6b6b6" style="fill: var(--color1, #b6b6b6)" d="M0 20h16l-6 6 6 6 16-16-16-16-6 6 6 6h-16z"></path>
</symbol>
<symbol id="icon-cross" viewBox="0 0 32 32">
<path fill="#fff" style="fill: var(--color2, #fff)" d="M19.615 16l11.026-11c0.483-0.483 0.754-1.138 0.754-1.821s-0.271-1.338-0.754-1.821c-0.483-0.483-1.138-0.754-1.821-0.754s-1.338 0.271-1.82 0.754l-11 11.026-11-11.026c-0.483-0.483-1.138-0.754-1.821-0.754s-1.338 0.271-1.821 0.754c-0.483 0.483-0.754 1.138-0.754 1.821s0.271 1.338 0.754 1.821l11.026 11-11.026 11c-0.24 0.238-0.431 0.522-0.561 0.834s-0.197 0.648-0.197 0.986c0 0.339 0.067 0.674 0.197 0.986s0.321 0.596 0.561 0.834c0.238 0.24 0.522 0.431 0.834 0.561s0.648 0.197 0.986 0.197 0.674-0.067 0.986-0.197c0.312-0.13 0.596-0.321 0.834-0.561l11-11.026 11 11.026c0.238 0.24 0.522 0.431 0.834 0.561s0.648 0.197 0.986 0.197c0.339 0 0.674-0.067 0.986-0.197s0.596-0.321 0.834-0.561c0.24-0.238 0.431-0.522 0.561-0.834s0.197-0.648 0.197-0.986c0-0.338-0.067-0.674-0.197-0.986s-0.321-0.596-0.561-0.834l-11.026-11z"></path>
</symbol>
<symbol id="icon-etsy" viewBox="0 0 28 32">
<path d="M9.419 3.26c0-0.433 0.044-0.693 0.787-0.693h9.953c1.733 0 2.693 1.48 3.387 4.257l0.56 2.221h1.693c0.307-6.304 0.573-9.045 0.573-9.045s-4.261 0.48-6.787 0.48h-12.732l-6.819-0.219v1.827l2.3 0.435c1.613 0.32 2 0.661 2.133 2.141 0 0 0.147 4.36 0.147 11.52 0 7.18-0.12 11.48-0.12 11.48 0 1.297-0.52 1.777-2.12 2.097l-2.296 0.44v1.799l6.84-0.22h11.4c2.58 0 8.52 0.22 8.52 0.22 0.14-1.56 1-8.64 1.14-9.419h-1.6l-1.712 3.88c-1.34 3.040-3.301 3.26-5.48 3.26h-6.541c-2.173 0-3.22-0.853-3.22-2.733v-9.921c0 0 4.827 0 6.387 0.128 1.216 0.085 1.951 0.433 2.347 2.131l0.52 2.26h1.88l-0.12-5.704 0.256-5.74h-1.855l-0.6 2.52c-0.377 1.659-0.64 1.96-2.339 2.133-2.221 0.227-6.42 0.187-6.42 0.187v-11.715h-0.067l0.004-0.007z"></path>
</symbol>
<symbol id="icon-fb" viewBox="0 0 19 32">
<path d="M12.021 31.595v-14.206h4.793l0.712-5.562h-5.505v-3.543c0-1.605 0.447-2.704 2.751-2.704h2.919v-4.959c-1.42-0.152-2.848-0.226-4.276-0.22-4.236 0-7.145 2.586-7.145 7.334v4.082h-4.761v5.562h4.772v14.217h5.741z"></path>
</symbol>
<symbol id="icon-heart" viewBox="0 0 36 32">
<path d="M19.143 5.539c-5.877-9.078-17.772-4.133-17.772 5.756 0 7.426 16.307 19.042 17.772 20.552 1.475-1.51 16.971-13.126 16.971-20.552 0-9.814-11.083-14.834-16.971-5.756v0z"></path>
</symbol>
<symbol id="icon-logo" viewBox="0 0 133 32">
<path fill="#fff" style="fill: var(--color2, #fff)" d="M27.415 27.372c-3.095 3.085-6.883 4.628-11.364 4.628s-8.284-1.543-11.408-4.628c-3.095-3.115-4.643-6.905-4.643-11.372s1.548-8.242 4.643-11.328c3.125-3.115 6.928-4.672 11.408-4.672s8.269 1.557 11.364 4.672c3.125 3.085 4.687 6.861 4.687 11.328s-1.562 8.257-4.687 11.372zM8.225 23.934c2.122 2.086 4.731 3.129 7.827 3.129s5.689-1.043 7.782-3.129c2.122-2.116 3.184-4.76 3.184-7.934s-1.061-5.803-3.184-7.89c-2.093-2.116-4.687-3.174-7.782-3.174s-5.704 1.058-7.827 3.174c-2.093 2.086-3.139 4.716-3.139 7.89s1.046 5.818 3.139 7.934z"></path>
<path fill="#fff" style="fill: var(--color2, #fff)" d="M49.357 32c-4.805 0-8.121-1.881-9.949-5.642l4.378-2.556c1.002 2.174 2.874 3.262 5.616 3.262 1.769 0 3.125-0.426 4.068-1.278 0.973-0.882 1.459-2.116 1.459-3.702v-21.51h5.085v21.51c0 3.174-1.002 5.627-3.007 7.361-2.005 1.704-4.554 2.556-7.65 2.556z"></path>
<path fill="#fff" style="fill: var(--color2, #fff)" d="M79.178 32c-4.805 0-8.121-1.881-9.949-5.642l4.378-2.556c1.002 2.174 2.874 3.262 5.615 3.262 1.769 0 3.125-0.426 4.068-1.278 0.973-0.882 1.459-2.116 1.459-3.702v-21.51h5.085v21.51c0 3.174-1.002 5.627-3.007 7.361-2.004 1.704-4.554 2.556-7.65 2.556z"></path>
<path fill="#fff" style="fill: var(--color2, #fff)" d="M128.236 27.372c-3.095 3.085-6.883 4.628-11.364 4.628s-8.284-1.543-11.409-4.628c-3.095-3.115-4.642-6.905-4.642-11.372s1.548-8.242 4.642-11.328c3.125-3.115 6.928-4.672 11.409-4.672s8.269 1.557 11.364 4.672c3.125 3.085 4.687 6.861 4.687 11.328s-1.562 8.257-4.687 11.372zM109.046 23.934c2.122 2.086 4.731 3.129 7.826 3.129s5.689-1.043 7.782-3.129c2.122-2.116 3.184-4.76 3.184-7.934s-1.062-5.803-3.184-7.89c-2.093-2.116-4.687-3.174-7.782-3.174s-5.704 1.058-7.826 3.174c-2.093 2.086-3.14 4.716-3.14 7.89s1.047 5.818 3.14 7.934z"></path>
<path fill="#fff" style="fill: var(--color2, #fff)" d="M22.234 14.728l-0.004-0.032c-0.007-0.040-0.019-0.079-0.036-0.115l-1.81-3.243c0 0-0.231-0.318-0.286-0.318h-7.713l-2.32 3.451-0.027 0.032-0.004 0.015c-0.020 0.035-0.036 0.072-0.048 0.111l-0.009 0.031c-0.027 0.099-0.025 0.204 0.004 0.302l0.011 0.035c0.015 0.041 0.033 0.079 0.054 0.112l5.619 7.926c0.029 0.041 0.064 0.078 0.107 0.111l0.033 0.023c0.032 0.022 0.065 0.040 0.114 0.060l0.032 0.012c0.055 0.016 0.103 0.023 0.149 0.023s0.093-0.007 0.155-0.025l0.038-0.015c0.037-0.015 0.071-0.033 0.111-0.060l0.025-0.017c0.043-0.034 0.078-0.071 0.097-0.1l5.615-7.916c0.050-0.074 0.082-0.16 0.094-0.251l0.004-0.041 0.002-0.032-0.007-0.076zM19.223 14.517l0.799-1.61 0.799 1.61h-1.598zM18.744 15.472h1.896l-3.161 4.457 1.264-4.457zM18.275 14.035l-1.154-1.743h2.020l-0.865 1.743zM14.577 15.472h3.045l-1.523 5.367-1.522-5.367zM14.879 14.517l1.22-1.843 1.22 1.843h-2.44zM14.020 13.89l-0.529-1.599h1.587l-1.058 1.599zM14.72 19.929l-3.161-4.457h1.896l1.264 4.457zM12.576 12.919l0.529 1.599h-1.588l1.058-1.599z"></path>
<path fill="#fff" style="fill: var(--color2, #fff)" d="M122.953 14.728l-0.004-0.032c-0.007-0.040-0.019-0.079-0.036-0.115l-1.81-3.243c0 0-0.231-0.318-0.286-0.318h-7.713l-2.319 3.451-0.028 0.032-0.004 0.015c-0.020 0.035-0.036 0.072-0.048 0.111l-0.009 0.031c-0.027 0.099-0.025 0.204 0.004 0.302l0.011 0.035c0.014 0.041 0.032 0.079 0.054 0.112l5.619 7.926c0.029 0.041 0.064 0.078 0.107 0.111l0.033 0.023c0.032 0.022 0.065 0.040 0.114 0.060l0.032 0.012c0.055 0.016 0.102 0.023 0.149 0.023s0.093-0.007 0.155-0.025l0.038-0.015c0.037-0.015 0.070-0.033 0.111-0.060l0.025-0.017c0.043-0.034 0.078-0.071 0.097-0.1l5.615-7.916c0.050-0.074 0.082-0.16 0.095-0.251l0.004-0.041 0.002-0.032-0.007-0.076zM119.942 14.517l0.799-1.61 0.799 1.61h-1.598zM119.463 15.472h1.897l-3.161 4.457 1.264-4.457zM118.994 14.035l-1.154-1.743h2.020l-0.865 1.743zM115.297 15.472h3.045l-1.523 5.367-1.522-5.367zM115.598 14.517l1.22-1.843 1.22 1.843h-2.44zM114.739 13.89l-0.529-1.599h1.588l-1.058 1.599zM115.439 19.929l-3.161-4.457h1.897l1.265 4.457zM113.295 12.919l0.529 1.599h-1.588l1.058-1.599z"></path>
</symbol>
<symbol id="icon-mail" viewBox="0 0 48 32">
<path d="M1.531 3.429l20 10.744c0.672 0.36 1.541 0.531 2.416 0.531s1.744-0.171 2.416-0.531l20-10.744c1.304-0.701 2.536-3.429 0.144-3.429h-45.117c-2.392 0-1.16 2.728 0.141 3.429zM46.968 9.304l-20.605 10.739c-0.907 0.475-1.541 0.531-2.416 0.531s-1.509-0.056-2.416-0.531c-0.907-0.475-19.021-9.971-20.501-10.741-1.040-0.544-1.029 0.093-1.029 0.584v19.448c0 1.12 1.509 2.667 2.667 2.667h42.667c1.157 0 2.667-1.547 2.667-2.667v-19.445c0-0.491 0.011-1.128-1.032-0.584z"></path>
</symbol>
<symbol id="icon-man" viewBox="0 0 32 32">
<path d="M16 0c2.122 0 4.157 0.843 5.657 2.343s2.343 3.535 2.343 5.657-0.843 4.157-2.343 5.657c-1.5 1.5-3.535 2.343-5.657 2.343s-4.157-0.843-5.657-2.343c-1.5-1.5-2.343-3.535-2.343-5.657s0.843-4.157 2.343-5.657c1.5-1.5 3.535-2.343 5.657-2.343zM16 20c8.84 0 16 3.58 16 8v4h-32v-4c0-4.42 7.16-8 16-8z"></path>
<symbol id="icon-menu" viewBox="0 0 36 32">
<path fill="#fff" style="fill: var(--color2, #fff)" d="M0.356 2.667c0-0.589 0.234-1.155 0.651-1.571s0.982-0.651 1.571-0.651h31.111c0.589 0 1.155 0.234 1.571 0.651s0.651 0.982 0.651 1.571c0 0.589-0.234 1.155-0.651 1.571s-0.982 0.651-1.571 0.651h-31.111c-0.589 0-1.155-0.234-1.571-0.651s-0.651-0.982-0.651-1.571z"></path>
<path fill="#fff" style="fill: var(--color2, #fff)" d="M0.356 29.333c0-0.589 0.234-1.155 0.651-1.571s0.982-0.651 1.571-0.651h31.111c0.589 0 1.155 0.234 1.571 0.651s0.651 0.982 0.651 1.571c0 0.589-0.234 1.155-0.651 1.571s-0.982 0.651-1.571 0.651h-31.111c-0.589 0-1.155-0.234-1.571-0.651s-0.651-0.982-0.651-1.571z"></path>
<path fill="#fff" style="fill: var(--color2, #fff)" d="M2.578 13.778c-0.589 0-1.155 0.234-1.571 0.651s-0.651 0.982-0.651 1.571c0 0.589 0.234 1.155 0.651 1.571s0.982 0.651 1.571 0.651h17.778c0.589 0 1.155-0.234 1.571-0.651s0.651-0.982 0.651-1.571c0-0.589-0.234-1.155-0.651-1.571s-0.982-0.651-1.571-0.651h-17.778z"></path>
</symbol>
<symbol id="icon-phone" viewBox="0 0 32 32">
<path d="M27.61 19.605c-0.154-1.067-0.978-1.899-2.038-2.147-4.123-0.966-5.157-3.341-5.331-5.974-0.731-0.136-2.032-0.283-4.24-0.283s-3.509 0.147-4.24 0.283c-0.174 2.634-1.208 5.008-5.331 5.974-1.061 0.25-1.885 1.080-2.038 2.147l-0.795 5.507c-0.28 1.939 1.144 3.688 3.125 3.688h18.56c1.979 0 3.405-1.749 3.125-3.688l-0.795-5.507zM16 24.787c-2.232 0-4.042-1.792-4.042-4s1.81-4 4.042-4c2.232 0 4.042 1.792 4.042 4s-1.811 4-4.042 4zM31.92 9.6c-0.038-2.4-6.147-6.398-15.92-6.4-9.774 0.002-15.883 4-15.92 6.4s0.034 5.523 4.056 5.003c4.706-0.61 4.416-2.253 4.416-4.602 0-1.638 3.827-2.034 7.448-2.034s7.446 0.395 7.448 2.034c0 2.349-0.29 3.992 4.416 4.602 4.021 0.52 4.093-2.603 4.056-5.003z"></path>
<symbol id="icon-telegram" viewBox="0 0 37 32">
<path d="M33.182 1.275l-31.52 12.155c-2.151 0.864-2.139 2.064-0.395 2.599l8.092 2.524 18.724-11.813c0.885-0.539 1.694-0.249 1.029 0.341l-15.17 13.692-0.558 8.341c0.818 0 1.179-0.375 1.637-0.818l3.931-3.822 8.176 6.039c1.508 0.83 2.59 0.404 2.965-1.396l5.367-25.294c0.549-2.203-0.841-3.2-2.279-2.549z"></path>
</symbol>
<symbol id="icon-vk" viewBox="0 0 55 32">
<path d="M48.828 22.303c0 0 4.435 4.38 5.532 6.407 0.022 0.029 0.038 0.061 0.049 0.096 0.447 0.749 0.557 1.336 0.337 1.769-0.37 0.716-1.624 1.075-2.049 1.105h-7.839c-0.546 0-1.681-0.143-3.064-1.097-1.056-0.738-2.106-1.953-3.124-3.141-1.52-1.764-2.833-3.294-4.164-3.294-0.168-0-0.335 0.027-0.494 0.082-1.007 0.318-2.285 1.753-2.285 5.573 0 1.196-0.944 1.876-1.605 1.876h-3.59c-1.223 0-7.592-0.428-13.24-6.383-6.92-7.291-13.136-21.916-13.196-22.044-0.387-0.946 0.425-1.462 1.303-1.462h7.916c1.062 0 1.407 0.642 1.648 1.218 0.28 0.661 1.317 3.305 3.017 6.276 2.754 4.833 4.446 6.8 5.798 6.8 0.254 0.001 0.504-0.066 0.724-0.192 1.766-0.971 1.437-7.28 1.355-8.58 0-0.252-0.003-2.817-0.908-4.057-0.647-0.889-1.75-1.234-2.416-1.36 0.178-0.258 0.557-0.653 1.042-0.886 1.21-0.603 3.396-0.691 5.565-0.691h1.204c2.353 0.033 2.962 0.184 3.818 0.4 1.723 0.411 1.755 1.528 1.605 5.329-0.044 1.086-0.090 2.309-0.090 3.749 0 0.307-0.014 0.65-0.014 0.998-0.052 1.95-0.121 4.147 1.256 5.050 0.179 0.111 0.385 0.17 0.595 0.17 0.477 0 1.906 0 5.782-6.651 1.701-2.938 3.017-6.402 3.108-6.662 0.077-0.145 0.307-0.554 0.587-0.719 0.199-0.106 0.422-0.159 0.647-0.154h9.312c1.015 0 1.703 0.154 1.838 0.538 0.225 0.623-0.044 2.523-4.295 8.272-0.716 0.957-1.344 1.786-1.895 2.51-3.854 5.058-3.854 5.313 0.228 9.153z"></path>
<path opacity="0.2" d="M48.828 22.303c0 0 4.435 4.38 5.532 6.407 0.022 0.029 0.038 0.061 0.049 0.096 0.447 0.749 0.557 1.336 0.337 1.769-0.37 0.716-1.624 1.075-2.049 1.105h-7.839c-0.546 0-1.681-0.143-3.064-1.097-1.056-0.738-2.106-1.953-3.124-3.141-1.52-1.764-2.833-3.294-4.164-3.294-0.168-0-0.335 0.027-0.494 0.082-1.007 0.318-2.285 1.753-2.285 5.573 0 1.196-0.944 1.876-1.605 1.876h-3.59c-1.223 0-7.592-0.428-13.24-6.383-6.92-7.291-13.136-21.916-13.196-22.044-0.387-0.946 0.425-1.462 1.303-1.462h7.916c1.062 0 1.407 0.642 1.648 1.218 0.28 0.661 1.317 3.305 3.017 6.276 2.754 4.833 4.446 6.8 5.798 6.8 0.254 0.001 0.504-0.066 0.724-0.192 1.766-0.971 1.437-7.28 1.355-8.58 0-0.252-0.003-2.817-0.908-4.057-0.647-0.889-1.75-1.234-2.416-1.36 0.178-0.258 0.557-0.653 1.042-0.886 1.21-0.603 3.396-0.691 5.565-0.691h1.204c2.353 0.033 2.962 0.184 3.818 0.4 1.723 0.411 1.755 1.528 1.605 5.329-0.044 1.086-0.090 2.309-0.090 3.749 0 0.307-0.014 0.65-0.014 0.998-0.052 1.95-0.121 4.147 1.256 5.050 0.179 0.111 0.385 0.17 0.595 0.17 0.477 0 1.906 0 5.782-6.651 1.701-2.938 3.017-6.402 3.108-6.662 0.077-0.145 0.307-0.554 0.587-0.719 0.199-0.106 0.422-0.159 0.647-0.154h9.312c1.015 0 1.703 0.154 1.838 0.538 0.225 0.623-0.044 2.523-4.295 8.272-0.716 0.957-1.344 1.786-1.895 2.51-3.854 5.058-3.854 5.313 0.228 9.153z"></path>
</symbol>
<symbol id="icon-youtube" viewBox="0 0 48 32">
<path d="M45.791 5.048c-0.259-0.962-0.766-1.839-1.47-2.543s-1.582-1.211-2.543-1.47c-3.543-0.959-17.778-0.959-17.778-0.959s-14.235 0-17.777 0.959c-0.962 0.259-1.839 0.766-2.543 1.47s-1.211 1.581-1.47 2.543c-0.661 3.613-0.982 7.28-0.959 10.953-0.024 3.673 0.297 7.34 0.959 10.952 0.259 0.962 0.766 1.839 1.47 2.543s1.581 1.212 2.543 1.47c3.543 0.959 17.777 0.959 17.777 0.959s14.235 0 17.778-0.959c0.962-0.259 1.839-0.766 2.543-1.47s1.211-1.581 1.47-2.543c0.662-3.613 0.983-7.28 0.959-10.952 0.024-3.673-0.297-7.34-0.959-10.953zM19.45 22.825v-13.65l11.814 6.825-11.814 6.825z"></path>
</symbol>
<symbol id="icon-zoom" viewBox="0 0 32 32">
<path fill="#fff" style="fill: var(--color2, #fff)" d="M32 28.632l-8.68-8.68c1.605-2.439 2.248-5.387 1.804-8.272s-1.942-5.504-4.206-7.348-5.13-2.783-8.046-2.634c-2.916 0.148-5.673 1.373-7.737 3.438s-3.289 4.821-3.438 7.737c-0.148 2.916 0.79 5.783 2.634 8.046s4.462 3.762 7.348 4.206c2.886 0.444 5.833-0.199 8.272-1.804l8.68 8.68 3.368-3.368zM5.053 13.474c0-4.643 3.778-8.421 8.421-8.421s8.421 3.778 8.421 8.421c0 4.643-3.778 8.421-8.421 8.421s-8.421-3.778-8.421-8.421z"></path>
</symbol>
</defs>
</svg>
